#define _width 10
#define _height 10
static char _bits[] = {
 0x00,0x00,0x78,0x00,0xfc,0x00,0xb6,0x01,0xce,0x01,0xce,0x01,0xb6,0x01,0xfc,
 0x00,0x78,0x00,0x00,0x00 };
