#define _width 10
#define _height 10
static char _bits[] = {
 0x78,0x00,0x84,0x00,0x02,0x01,0x01,0x02,0x31,0x02,0x31,0x02,0x01,0x02,0x02,
 0x01,0x84,0x00,0x78,0x00 };
